<svg xmlns="http://www.w3.org/2000/svg" width="143" height="140.971" viewBox="0 0 143 140.971"><defs><style>.a{fill:#003595;}</style></defs><path class="a" d="M1056.594,1063.888a29.76,29.76,0,0,0-8.037,1.112,42.058,42.058,0,0,0-80.338,11.079c-.3-.012-.6-.017-.9-.017a23.818,23.818,0,0,0,0,47.637h14.733v17.4a11.644,11.644,0,1,0,3,0v-17.4h25.4v33.63a11.646,11.646,0,1,0,3,0V1123.7h25.406v9.282a11.645,11.645,0,1,0,3,0V1123.7h14.732a29.906,29.906,0,1,0,0-59.811Zm-64.4,88.746a8.645,8.645,0,1,1-8.644-8.645A8.654,8.654,0,0,1,992.2,1152.634Zm28.407,16.232a8.645,8.645,0,1,1-8.646-8.645A8.655,8.655,0,0,1,1020.6,1168.866Zm28.4-24.347a8.644,8.644,0,1,1-8.645-8.646A8.654,8.654,0,0,1,1049.007,1144.519Zm7.587-23.82H967.318a20.818,20.818,0,0,1,0-41.637c.674,0,1.374.035,2.081.1a1.5,1.5,0,0,0,1.641-1.349,39.057,39.057,0,0,1,75.251-10.437,1.5,1.5,0,0,0,1.867.877,26.9,26.9,0,1,1,8.436,52.441Z" transform="translate(-943.5 -1039.54)"/></svg>