<svg xmlns="http://www.w3.org/2000/svg" width="133.386" height="153" viewBox="0 0 133.386 153"><defs><style>.a{fill:#003595;}</style></defs><path class="a" d="M519.193,1415.85a66.256,66.256,0,0,0-8.822-33.085,1.473,1.473,0,0,0-.283-.492,67.173,67.173,0,0,0-24-24.006,1.491,1.491,0,0,0-.517-.3,66.451,66.451,0,0,0-66.16.014,1.492,1.492,0,0,0-.482.277,67.162,67.162,0,0,0-24.01,24.007,1.467,1.467,0,0,0-.292.507,66.612,66.612,0,0,0,36.859,96.356c-.057.631-.1,1.267-.1,1.913a21.114,21.114,0,1,0,42.227,0c0-.646-.04-1.282-.1-1.913A66.8,66.8,0,0,0,519.193,1415.85Zm-33.17-54.125a64.177,64.177,0,0,1,21.186,21.557l-17.085,29.592a10.97,10.97,0,0,0-10.869,18.826l-17.539,30.377a20.878,20.878,0,0,0-2.323-.969l16-59.709a10.977,10.977,0,0,0,5.629-21.009Zm7.946,61.316a7.983,7.983,0,1,1-7.984-7.982A7.992,7.992,0,0,1,493.969,1423.041Zm-9.23-32.531a7.983,7.983,0,1,1-7.982-7.983A7.992,7.992,0,0,1,484.739,1390.51Zm-1.4-30.364-5.219,19.475a10.978,10.978,0,0,0-5.629,21.01l-15.994,59.69a21.125,21.125,0,0,0-2.5-.315v-39.549a10.97,10.97,0,0,0,0-21.737v-46.525A63.267,63.267,0,0,1,483.339,1360.146ZM452.5,1401.6a7.983,7.983,0,1,1-7.982,7.984A7.992,7.992,0,0,1,452.5,1401.6Zm-1.5-49.41v46.525a10.97,10.97,0,0,0,0,21.737v39.549a21.158,21.158,0,0,0-2.5.315l-15.994-59.69a10.983,10.983,0,0,0-4.265-21.1,11.186,11.186,0,0,0-1.365.094l-5.218-19.474A63.273,63.273,0,0,1,451,1352.195Zm-22.758,30.332a7.983,7.983,0,1,1-7.983,7.983A7.992,7.992,0,0,1,428.242,1382.527Zm-9.266-20.8,5,18.664a10.968,10.968,0,0,0,5.629,21.009l16,59.71a20.979,20.979,0,0,0-2.323.969L425.744,1431.7a10.97,10.97,0,0,0-10.869-18.826l-17.085-29.591A64.168,64.168,0,0,1,418.976,1361.726Zm.036,53.333a7.982,7.982,0,1,1-7.982,7.982A7.992,7.992,0,0,1,419.012,1415.059Zm-30.2.791a63.279,63.279,0,0,1,7.28-29.519l16.194,28.051a10.97,10.97,0,0,0,10.87,18.826l17.524,30.354a21.155,21.155,0,0,0-8.683,12.55A63.764,63.764,0,0,1,388.807,1415.85Zm63.693,83.307a18.113,18.113,0,1,1,18.113-18.114A18.135,18.135,0,0,1,452.5,1499.157Zm20.508-23.045a21.163,21.163,0,0,0-8.685-12.551l17.525-30.353a10.97,10.97,0,0,0,10.869-18.826l16.2-28.052a63.6,63.6,0,0,1-35.9,89.782Z" transform="translate(-385.807 -1349.157)"/></svg>