<svg xmlns="http://www.w3.org/2000/svg" width="133" height="131.034" viewBox="0 0 133 131.034"><defs><style>.a{fill:#003595;}</style></defs><path class="a" d="M331.061,1168.014,286.75,1123.7a50.4,50.4,0,0,0,5.948-59.056l22.467-22.467a1.5,1.5,0,0,0-2.121-2.121l-21.974,21.974a50.556,50.556,0,1,0-6.378,63.853l44.247,44.248a1.5,1.5,0,1,0,2.122-2.121Zm-82.015-30.381A47.547,47.547,0,1,1,288.9,1064.2l-30.825,30.824L244.341,1081.3a1.5,1.5,0,1,0-2.121,2.121l14.69,14.689a1,1,0,0,0,.075.085,1.488,1.488,0,0,0,1.084.462,1.508,1.508,0,0,0,1.015-.391c.03-.027.058-.054.084-.082l31.334-31.335a47.514,47.514,0,0,1-41.456,70.789Z" transform="translate(-198.5 -1039.54)"/></svg>