<svg xmlns="http://www.w3.org/2000/svg" width="160" height="13.966" viewBox="0 0 160 13.966"><defs><style>.a{fill:#fff;}</style></defs><path class="a" d="M77,59.534H72.885l9.036,13.549h4.111Z" transform="translate(-60 -59.5)"/><path class="a" d="M70.278,59.5H66.167L75.2,73.049h4.111Z" transform="translate(-60 -59.5)"/><path class="a" d="M64.111,59.5H60l9.036,13.549h4.111Z" transform="translate(-60 -59.5)"/><g transform="translate(-60 -59.5)"><path class="a" d="M93.326,64.249c0-2.732-2.192-4.715-5.213-4.715H79.576l2.24,3.358h7.043a1.255,1.255,0,1,1,0,2.509h-5.37l5.123,7.682h4.111l-2.9-4.352A4.613,4.613,0,0,0,93.326,64.249Z"/></g><g transform="translate(-60 -59.5)"><path class="a" d="M109.563,62.882h-.817V73.095h7.572v-.773h-6.755Z"/><path class="a" d="M127.189,65.858a3,3,0,0,0-3.268-2.976h-5.238V73.1h.817V68.806h4.508l2.9,4.289h.86v-.073l-2.9-4.319A2.852,2.852,0,0,0,127.189,65.858Zm-3.3,2.189H119.5V63.655h4.391a2.212,2.212,0,1,1,0,4.392Z"/><path class="a" d="M138.482,72.059l-4.275-9.177h-.846v.088L138.1,73.095h.73l4.756-10.125v-.088h-.846Z"/><path class="a" d="M146.478,68.368h4.567V67.58h-4.567V63.655h6.887v-.773h-7.7V73.095h7.776v-.773h-6.959Z"/><path class="a" d="M164.016,71.767l-7.339-8.885h-.715V73.095h.817V64.21l7.324,8.885h.729V62.882h-.817Z"/><path class="a" d="M167.051,62.882v.773h4.187v9.44h.817v-9.44h4.173v-.773h-9.177Z"/><path class="a" d="M186.237,68.966c0,2.32-1.357,3.5-3.589,3.5-2.217,0-3.589-1.182-3.589-3.5V62.882h-.817v6.084c0,3.064,2.042,4.275,4.406,4.275s4.407-1.211,4.407-4.275V62.882h-.818Z"/><path class="a" d="M198.669,65.858a3,3,0,0,0-3.269-2.976h-5.237V73.1h.817V68.806h4.508l2.9,4.289h.861v-.073l-2.9-4.319A2.852,2.852,0,0,0,198.669,65.858Zm-3.3,2.189H190.98V63.655h4.391a2.212,2.212,0,1,1,0,4.392Z"/><path class="a" d="M202.375,68.368h4.567V67.58h-4.567V63.655h6.887v-.773h-7.7V73.095h7.776v-.773h-6.959Z"/><path class="a" d="M215.536,67.58c-2.072-.277-3.429-.511-3.429-1.809,0-1.342,1.2-2.262,3.253-2.262,1.853,0,3.108.773,3.561,1.941l.685-.38a4.329,4.329,0,0,0-4.216-2.334c-2.451,0-4.1,1.225-4.1,3.064,0,2.013,2.188,2.291,4.158,2.568,2.378.321,3.735.438,3.735,1.751,0,1.459-1.328,2.349-3.589,2.349a5.6,5.6,0,0,1-4.056-1.4l-.452.671a6.551,6.551,0,0,0,4.493,1.5c2.627,0,4.421-1.123,4.421-3.122C220,68,217.709,67.886,215.536,67.58Z"/><path class="a" d="M102.779,67.234h-1.64l4.526-3.665-.008-.024v-.662h-7.68v.772h6.356L99.708,67.4h-.014v.011h0v.681h3.226a1.976,1.976,0,0,1,2.145,2c0,1.462-1.226,2.528-3.458,2.528a4.8,4.8,0,0,1-3.881-1.5l-.467.715a5.782,5.782,0,0,0,4.377,1.622c2.787,0,4.246-1.526,4.246-3.339A2.8,2.8,0,0,0,102.779,67.234Z"/></g></svg>