<svg xmlns="http://www.w3.org/2000/svg" xmlns:xlink="http://www.w3.org/1999/xlink" width="748.723" height="370.676" viewBox="0 0 748.723 370.676"><defs><style>.a,.c,.d,.e{fill:none;}.b{clip-path:url(#a);}.c,.d,.e{stroke:#000;stroke-linejoin:round;}.c{stroke-width:6.922px;}.d{stroke-width:7.704px;}.e{stroke-width:8.586px;}</style><clipPath id="a"><path class="a" d="M979.362,2070.523l-748.723-10.209V1699.848H972.285Z"/></clipPath></defs><g class="b" transform="translate(-230.638 -1699.848)"><path class="c" d="M413.29,1904.172c22.493,54.239,45.446,111.714,37.467,169.887-3.815,27.814-14.634,56.055-7.28,83.149q.923-16.712,1.847-33.421"/><path class="c" d="M421.7,1806.655c-25.312-5.609-53.014-10.959-76.165.711-6.782,3.419-13.134,8.574-15.761,15.7-4.082,11.077,1.934,23.446,9.924,32.138,15.995,17.4,39.464,26.074,62.72,30.3,14.077,2.555,28.808,3.667,42.52-.418s26.287-14.194,30.136-27.974c4.619-16.542-4.445-34.614-18.145-44.972s-31.126-14.369-48.155-16.6c-14.328-1.874-29.211-2.624-42.934,1.9s-26.149,15.279-29.111,29.422"/><path class="c" d="M396.742,1954.706l-34.492-21.861a6.164,6.164,0,0,1,7.668.592"/><path class="c" d="M464.848,1963a752.539,752.539,0,0,1,59.464-51.677"/><path class="d" d="M701.948,1823.558c-8.649,2.891-17.493,5.887-24.627,11.561s-12.332,14.664-10.968,23.67c1.244,8.214,7.493,14.714,13.912,20,16.27,13.392,36.155,22.934,57.164,24.7s43.076-4.813,58.059-19.626a40.405,40.405,0,0,0,9.659-13.981,38.029,38.029,0,0,0,2.093-16.056c-1.209-18.558-12.433-35.636-27.643-46.365s-34.014-15.566-52.621-16.3c-10.06-.4-20.353.392-29.681,4.175s-17.637,10.874-21.2,20.278"/><path class="d" d="M754.462,1920.659a979.681,979.681,0,0,0,26.516,233.546l-3.424-6.7"/><path class="d" d="M724.057,1997.991a139.659,139.659,0,0,1-44.677-30.928"/><path class="d" d="M787.118,2002.066a212.46,212.46,0,0,1,59.966-52.965"/><path class="e" d="M569.288,1795.418a114.427,114.427,0,0,0-47.561,21.661c-6.676,5.169-12.934,11.308-16.226,19.083s-3.079,17.464,2.29,23.98c3.832,4.65,9.65,7.112,15.287,9.242a321.886,321.886,0,0,0,55.729,15.508c14.678,2.692,29.953,4.338,44.4.616s28.035-13.753,32.4-28.024c5.45-17.823-4.6-37.024-18.068-49.9-18.517-17.7-44.51-27.8-70.026-25.566-14.438,1.262-30.963,9.368-31.951,23.827"/><path class="e" d="M587.849,1906.587a907.412,907.412,0,0,0,19.956,238.26"/><path class="e" d="M616.294,1972.144q36.99-34.1,74.987-67.08"/><path class="e" d="M555.237,1983.662c-20.628-22.47-53.548-31.956-70.9-57.043"/></g></svg>